<svg width="192" height="192" viewBox="0 0 192 192" fill="none" xmlns="http://www.w3.org/2000/svg">
<g clip-path="url(#clip0_6729_1594)">
<path d="M164.22 0H27.7798C12.4374 0 0 12.4374 0 27.7798V164.22C0 179.563 12.4374 192 27.7798 192H164.22C179.563 192 192 179.563 192 164.22V27.7798C192 12.4374 179.563 0 164.22 0Z" fill="#00E5FF"/>
<g clip-path="url(#clip1_6729_1594)">
<path d="M157.838 106.581C149.727 114.716 139.109 119.877 127.701 121.228C127.826 110.176 124.693 99.3311 118.694 90.0472C121.729 90.4951 124.826 90.2354 127.744 89.2882C130.662 88.341 133.321 86.7321 135.515 84.5871C143.444 76.838 143.336 63.9027 135.498 56.0644L121.594 42.1599L143.743 20L157.83 34.0891C172.851 49.1101 176.601 71.133 169.078 89.6529C166.503 95.9914 162.681 101.748 157.838 106.581Z" fill="#141414"/>
<path d="M71.2595 148.842L49.11 171.002L35.0229 156.913C20.002 141.892 16.2519 119.869 23.7749 101.349C27.2297 92.8747 32.888 85.4783 40.1633 79.9264C47.4385 74.3746 56.0661 70.8692 65.1519 69.7737C65.0274 80.8263 68.1599 91.671 74.1587 100.955C71.1239 100.507 68.0266 100.767 65.1088 101.714C62.1909 102.661 59.5316 104.27 57.3385 106.415C49.4088 114.164 49.5167 127.099 57.3551 134.938L71.2595 148.842Z" fill="#141414"/>
<path d="M107.507 156.913L93.4176 171.002L71.2597 148.842L85.3468 134.755C89.0827 131.019 91.1815 125.952 91.1815 120.668C91.1815 115.384 89.0827 110.317 85.3468 106.581C75.7338 96.968 70.3333 83.9299 70.3333 70.3351C70.3333 56.7402 75.7338 43.7022 85.3468 34.0891L99.4359 20L121.594 42.1599L107.507 56.247C103.771 59.9832 101.672 65.0504 101.672 70.334C101.672 75.6176 103.771 80.6849 107.507 84.4211C117.12 94.0341 122.52 107.072 122.52 120.667C122.52 134.262 117.12 147.3 107.507 156.913Z" fill="#141414"/>
</g>
</g>
<defs>
<clipPath id="clip0_6729_1594">
<rect width="192" height="192" fill="white"/>
</clipPath>
<clipPath id="clip1_6729_1594">
<rect width="152.851" height="151" fill="white" transform="translate(20 20)"/>
</clipPath>
</defs>
</svg>
