<svg viewBox="0 0 24 24" fill="none" xmlns="http://www.w3.org/2000/svg">
<g clip-path="url(#clip0_6298_342)">
<path d="M10.9736 22.2555C10.9575 20.8404 10.9575 19.4268 10.9174 18.0133C10.899 17.7229 10.9472 17.432 11.0584 17.1631C11.1697 16.8942 11.341 16.6543 11.5592 16.4618C12.5171 15.5616 13.4332 14.6326 14.343 13.6876C14.7072 13.3089 15.126 12.9062 14.8596 12.2917C14.5933 11.6772 14.0317 11.5167 13.4156 11.5167C12.9086 11.5167 12.4016 11.5167 11.8945 11.5167C11.6892 11.5167 11.4405 11.5938 11.3217 11.3563C11.1886 11.0819 11.3972 10.9054 11.5672 10.7402C12.8508 9.49188 14.1344 8.24573 15.418 7.00172C15.6859 6.7418 15.9539 6.48187 16.2363 6.23799C16.9631 5.60743 17.8504 5.78392 18.2948 6.63751C18.5371 7.10441 18.5596 7.60822 18.558 8.11684C18.558 9.66517 18.4906 11.2151 18.558 12.7602C18.6237 14.5011 17.8841 15.8376 16.6903 17.0025C14.8826 18.7471 13.084 20.4981 11.2945 22.2555H10.9736Z" fill="#FC6204"/>
<path d="M13.305 1.63623C13.6259 2.54116 13.4478 6.32774 13.0836 7.08024C12.766 7.71593 12.3005 8.26615 11.7262 8.68473C11.054 9.19495 10.5309 9.89771 9.93724 10.5106C9.57623 10.8829 9.38048 11.3129 9.58907 11.8135C9.6836 12.0374 9.84177 12.2287 10.044 12.3636C10.2462 12.4985 10.4836 12.5711 10.7266 12.5724C11.338 12.6109 11.9541 12.5836 12.567 12.5981C12.7371 12.5981 12.9617 12.521 13.0483 12.7585C13.0686 12.8369 13.0653 12.9196 13.0387 12.9961C13.0122 13.0726 12.9636 13.1395 12.8991 13.1885C11.3139 14.7721 9.74791 16.3734 8.1338 17.9265C7.53372 18.4913 6.50846 18.1528 6.16029 17.3473C6.03252 16.9963 5.97791 16.6228 5.99984 16.2499C6.00786 14.5427 6.01588 12.8355 5.99984 11.1284C5.98447 10.4336 6.1123 9.74319 6.37536 9.10002C6.63843 8.45685 7.0311 7.87473 7.52891 7.38991C9.37727 5.50945 11.2208 3.62579 13.0596 1.73892C13.1141 1.73892 13.2521 1.63623 13.305 1.63623Z" fill="#FC6204"/>
</g>
<defs>
<clipPath id="clip0_6298_342">
<rect width="12.5455" height="20.6192" fill="white" transform="translate(6 1.63623)"/>
</clipPath>
</defs>
</svg>
