<svg viewBox="0 0 24 24" fill="none" xmlns="http://www.w3.org/2000/svg">
<path d="M5.32568 2.28857H7.39197L17.9953 12.8375V6.80179H19.5178V16.2088L5.32568 2.28857Z" fill="#349EA3"/>
<path d="M20.1167 22.7344H18.0504L7.44708 12.1854V18.2212H5.92455V8.81411L20.1167 22.7344Z" fill="#349EA3"/>
<path d="M4.02197 4.68185L4.83761 3.86621L22.1292 21.5384L4.02197 4.68185Z" fill="#349EA3"/>
<path d="M20.3881 5.33392C20.3881 6.23485 19.6577 6.9652 18.7568 6.9652C17.8558 6.9652 17.1255 6.23485 17.1255 5.33392C17.1255 4.43299 17.8558 3.70264 18.7568 3.70264C19.6577 3.70264 20.3881 4.43299 20.3881 5.33392ZM17.7522 5.33392C17.7522 5.88871 18.202 6.33846 18.7568 6.33846C19.3116 6.33846 19.7613 5.88871 19.7613 5.33392C19.7613 4.77913 19.3116 4.32938 18.7568 4.32938C18.202 4.32938 17.7522 4.77913 17.7522 5.33392Z" fill="#349EA3"/>
<path d="M8.31774 19.4711C8.31774 20.3721 7.58739 21.1024 6.68646 21.1024C5.78553 21.1024 5.05518 20.3721 5.05518 19.4711C5.05518 18.5702 5.78553 17.8398 6.68646 17.8398C7.58739 17.8398 8.31774 18.5702 8.31774 19.4711ZM5.68192 19.4711C5.68192 20.0259 6.13166 20.4757 6.68646 20.4757C7.24125 20.4757 7.691 20.0259 7.691 19.4711C7.691 18.9163 7.24125 18.4666 6.68646 18.4666C6.13166 18.4666 5.68192 18.9163 5.68192 19.4711Z" fill="#349EA3"/>
<path d="M5.05456 3.26751C5.05456 4.16844 4.32421 4.89879 3.42327 4.89879C2.52234 4.89879 1.79199 4.16844 1.79199 3.26751C1.79199 2.36658 2.52234 1.63623 3.42327 1.63623C4.32421 1.63623 5.05456 2.36658 5.05456 3.26751ZM2.41873 3.26751C2.41873 3.8223 2.86848 4.27205 3.42327 4.27205C3.97807 4.27205 4.42781 3.8223 4.42781 3.26751C4.42781 2.71272 3.97807 2.26297 3.42327 2.26297C2.86848 2.26297 2.41873 2.71272 2.41873 3.26751Z" fill="#349EA3"/>
</svg>
