<?xml version="1.0" encoding="UTF-8"?>
<svg id="Layer_2" data-name="Layer 2" xmlns="http://www.w3.org/2000/svg" viewBox="0 0 169.2 163.71">
  <defs>
    <style>
      .cls-1 {
        fill: #e27625;
      }

      .cls-1, .cls-2, .cls-3, .cls-4, .cls-5, .cls-6, .cls-7, .cls-8, .cls-9 {
        stroke-width: 0px;
      }

      .cls-2 {
        fill: #763e1a;
      }

      .cls-3 {
        fill: #c0ad9e;
      }

      .cls-4 {
        fill: #3468d1;
      }

      .cls-5 {
        fill: #cc6228;
      }

      .cls-6 {
        fill: #f5841f;
      }

      .cls-7 {
        fill: #d7c1b3;
      }

      .cls-8 {
        fill: #fff;
        fill-rule: evenodd;
      }

      .cls-9 {
        fill: #2f343b;
      }
    </style>
  </defs>
  <g id="Layer_1-2" data-name="Layer 1">
    <g id="MM_Head_background_Do_not_edit_" data-name="MM Head background (Do not edit)">
      <path class="cls-6" d="M141.8,70.5l6.9-8.1-3-2.2,4.8-4.4-3.7-2.8,4.8-3.6-3.1-2.4,5-24.4-7.6-22.6M145.9,0l-48.8,18.1h-40.7L7.6,0l.3.2L7.6,0,0,22.6l5.1,24.4-3.2,2.4,4.9,3.6-3.7,2.8,4.8,4.4-3,2.2,6.9,8.1L1.3,102.9h0l9.7,33.1,34.1-9.4v-.1.1h0l6.6,5.4,13.5,9.2h23.1l13.5-9.2,6.6-5.4h0l34.2,9.4,9.8-33.1h0l-10.6-32.4"/>
    </g>
    <g id="Logos">
      <g>
        <polygon class="cls-1" points="145.9 0 86 44.1 97.1 18.1 145.9 0"/>
        <polygon class="cls-1" points="7.6 0 67 44.5 56.4 18.1 7.6 0"/>
        <polygon class="cls-1" points="124.4 102.3 108.4 126.5 142.6 135.9 152.4 102.8 124.4 102.3"/>
        <polygon class="cls-1" points="1.3 102.8 11 135.9 45.1 126.5 29.2 102.3 1.3 102.8"/>
        <polygon class="cls-1" points="43.3 61.3 33.8 75.6 67.6 77.1 66.5 40.9 43.3 61.3"/>
        <polygon class="cls-1" points="110.3 61.3 86.7 40.5 86 77.1 119.8 75.6 110.3 61.3"/>
        <polygon class="cls-1" points="45.1 126.5 65.6 116.7 47.9 103.1 45.1 126.5"/>
        <polygon class="cls-1" points="88 116.7 108.4 126.5 105.6 103.1 88 116.7"/>
        <polygon class="cls-7" points="108.4 126.5 88 116.7 89.7 129.9 89.5 135.5 108.4 126.5"/>
        <polygon class="cls-7" points="45.1 126.5 64.1 135.5 64 129.9 65.6 116.7 45.1 126.5"/>
        <polygon class="cls-9" points="64.4 94.3 47.5 89.4 59.5 83.9 64.4 94.3"/>
        <polygon class="cls-9" points="89.1 94.3 94.1 83.9 106.1 89.4 89.1 94.3"/>
        <polygon class="cls-5" points="45.1 126.5 48.1 102.3 29.2 102.8 45.1 126.5"/>
        <polygon class="cls-5" points="105.5 102.3 108.4 126.5 124.4 102.8 105.5 102.3"/>
        <polygon class="cls-5" points="119.8 75.6 86 77.1 89.1 94.3 94.1 83.9 106.1 89.4 119.8 75.6"/>
        <polygon class="cls-5" points="47.5 89.4 59.5 83.9 64.4 94.3 67.6 77.1 33.8 75.6 47.5 89.4"/>
        <polygon class="cls-1" points="33.8 75.6 47.9 103.1 47.5 89.4 33.8 75.6"/>
        <polygon class="cls-1" points="106.1 89.4 105.6 103.1 119.8 75.6 106.1 89.4"/>
        <polygon class="cls-1" points="67.6 77.1 64.4 94.3 68.4 114.7 69.3 87.9 67.6 77.1"/>
        <polygon class="cls-1" points="86 77.1 84.3 87.8 85.1 114.7 89.1 94.3 86 77.1"/>
        <polygon class="cls-6" points="89.1 94.3 85.1 114.7 88 116.7 105.6 103.1 106.1 89.4 89.1 94.3"/>
        <polygon class="cls-6" points="47.5 89.4 47.9 103.1 65.6 116.7 68.4 114.7 64.4 94.3 47.5 89.4"/>
        <polygon class="cls-3" points="89.5 135.5 89.7 129.9 88.1 128.6 65.4 128.6 64 129.9 64.1 135.5 45.1 126.5 51.7 131.9 65.2 141.2 88.3 141.2 101.8 131.9 108.4 126.5 89.5 135.5"/>
        <polygon class="cls-9" points="88 116.7 85.1 114.7 68.4 114.7 65.6 116.7 64 129.9 65.4 128.6 88.1 128.6 89.7 129.9 88 116.7"/>
        <polygon class="cls-2" points="148.5 47 153.5 22.6 145.9 0 88 42.6 110.3 61.3 141.8 70.5 148.7 62.4 145.7 60.2 150.5 55.9 146.8 53 151.6 49.4 148.5 47"/>
        <polygon class="cls-2" points="0 22.6 5.1 47 1.9 49.4 6.7 53.1 3 55.9 7.8 60.2 4.8 62.4 11.8 70.5 43.3 61.3 65.6 42.6 7.6 0 0 22.6"/>
        <polygon class="cls-6" points="141.8 70.5 110.3 61.3 119.8 75.6 105.6 103.1 124.4 102.8 152.4 102.8 141.8 70.5"/>
        <polygon class="cls-6" points="43.3 61.3 11.8 70.5 1.3 102.8 29.2 102.8 47.9 103.1 33.8 75.6 43.3 61.3"/>
        <polygon class="cls-6" points="86 77.1 88 42.6 97.1 18.1 56.4 18.1 65.6 42.6 67.6 77.1 68.4 87.9 68.4 114.7 85.1 114.7 85.2 87.9 86 77.1"/>
      </g>
    </g>
    <g id="cardano_ada" data-name="cardano ada">
      <g id="cardano_ada-2" data-name="cardano ada-2">
        <circle id="_Эллипс_6" data-name="Эллипс 6" class="cls-4" cx="128.05" cy="122.56" r="41.15"/>
        <path id="_Эллипс_6_копия_29" data-name="Эллипс 6 копия 29" class="cls-8" d="M123.46,109.93c2.25,0,4.07,1.82,4.07,4.07,0,2.25-1.82,4.07-4.07,4.07-2.25,0-4.07-1.82-4.07-4.07,0-2.25,1.82-4.07,4.07-4.07ZM133.28,109.93c2.25,0,4.07,1.82,4.07,4.07,0,2.25-1.82,4.07-4.07,4.07-2.25,0-4.07-1.82-4.07-4.07,0-2.25,1.82-4.07,4.07-4.07h0ZM133.28,127.05c2.25,0,4.07,1.82,4.07,4.07,0,2.25-1.82,4.07-4.07,4.07-2.25,0-4.07-1.82-4.07-4.07,0-2.25,1.82-4.07,4.07-4.07h0,0ZM123.46,127.05c2.25,0,4.07,1.82,4.07,4.07,0,2.25-1.82,4.07-4.07,4.07-2.25,0-4.07-1.82-4.07-4.07,0-2.25,1.82-4.07,4.07-4.07ZM118.41,118.63c2.25,0,4.07,1.82,4.07,4.07,0,2.25-1.82,4.07-4.07,4.07-2.25,0-4.07-1.82-4.07-4.07,0-2.25,1.82-4.07,4.07-4.07h0ZM138.33,118.63c2.25,0,4.07,1.82,4.07,4.07,0,2.25-1.82,4.07-4.07,4.07-2.25,0-4.07-1.82-4.07-4.07,0-2.25,1.82-4.07,4.07-4.07h0ZM142.96,111.62c1.39,0,2.52,1.13,2.52,2.53,0,1.39-1.13,2.52-2.53,2.52-1.39,0-2.52-1.13-2.52-2.52s1.13-2.52,2.52-2.52h0ZM142.96,128.45c1.39,0,2.52,1.13,2.52,2.53,0,1.39-1.13,2.52-2.53,2.52-1.39,0-2.52-1.13-2.52-2.52s1.13-2.52,2.52-2.52h0ZM113.78,128.45c1.39,0,2.52,1.13,2.52,2.53,0,1.39-1.13,2.52-2.53,2.52-1.39,0-2.52-1.13-2.52-2.52,0-1.39,1.13-2.52,2.53-2.52h0ZM113.78,111.62c1.39,0,2.52,1.13,2.52,2.53,0,1.39-1.13,2.52-2.53,2.52-1.39,0-2.52-1.13-2.52-2.52,0-1.39,1.13-2.52,2.53-2.52h0ZM128.37,103.2c1.39,0,2.52,1.13,2.52,2.53,0,1.39-1.13,2.52-2.53,2.52-1.39,0-2.52-1.13-2.52-2.52s1.13-2.52,2.52-2.52h0ZM128.37,136.86c1.39,0,2.52,1.13,2.52,2.53,0,1.39-1.13,2.52-2.53,2.52-1.39,0-2.52-1.13-2.52-2.52s1.13-2.52,2.52-2.52h0ZM139.17,139.39c1.16,0,2.1.94,2.1,2.1,0,1.16-.94,2.1-2.1,2.1-1.16,0-2.1-.94-2.1-2.1s.94-2.1,2.1-2.1h0ZM117.57,139.39c1.16,0,2.1.94,2.1,2.1,0,1.16-.94,2.1-2.1,2.1-1.16,0-2.1-.94-2.1-2.1s.94-2.1,2.1-2.1h0ZM117.57,101.52c1.16,0,2.1.94,2.1,2.1,0,1.16-.94,2.1-2.1,2.1-1.16,0-2.1-.94-2.1-2.1s.94-2.1,2.1-2.1h0ZM139.17,101.52c1.16,0,2.1.94,2.1,2.1,0,1.16-.94,2.1-2.1,2.1-1.16,0-2.1-.94-2.1-2.1s.94-2.1,2.1-2.1h0ZM150.11,120.31c1.16,0,2.1.94,2.1,2.1,0,1.16-.94,2.1-2.1,2.1-1.16,0-2.1-.94-2.1-2.1,0-1.16.94-2.1,2.1-2.1h0ZM106.62,120.31c1.16,0,2.1.94,2.1,2.1,0,1.16-.94,2.1-2.1,2.1-1.16,0-2.1-.94-2.1-2.1s.94-2.1,2.1-2.1h0ZM105.08,107.41c.93,0,1.68.75,1.68,1.68s-.75,1.68-1.68,1.68-1.68-.75-1.68-1.68h0c0-.93.75-1.68,1.68-1.68h0ZM105.08,134.34c.93,0,1.68.75,1.68,1.68s-.75,1.68-1.68,1.68-1.68-.75-1.68-1.68h0c0-.93.75-1.68,1.68-1.68h0ZM151.66,134.34c.93,0,1.68.75,1.68,1.68,0,.93-.75,1.68-1.68,1.68s-1.68-.75-1.68-1.68h0c0-.93.75-1.68,1.68-1.68h0ZM151.66,107.41c.93,0,1.68.75,1.68,1.68,0,.93-.75,1.68-1.68,1.68s-1.68-.75-1.68-1.68h0c0-.93.75-1.68,1.68-1.68h0ZM128.37,93.94c.93,0,1.68.75,1.68,1.68,0,.93-.75,1.68-1.68,1.68-.93,0-1.68-.75-1.68-1.68h0c0-.93.75-1.68,1.68-1.68h0ZM128.37,147.8c.93,0,1.68.75,1.68,1.68,0,.93-.75,1.68-1.68,1.68-.93,0-1.68-.75-1.68-1.68s.75-1.68,1.68-1.68h0ZM143.24,146.68c.77,0,1.4.63,1.4,1.4,0,.77-.63,1.4-1.4,1.4s-1.4-.63-1.4-1.4h0c0-.77.63-1.4,1.4-1.4ZM113.5,146.68c.77,0,1.4.63,1.4,1.4s-.63,1.4-1.4,1.4-1.4-.63-1.4-1.4h0c0-.77.63-1.4,1.4-1.4ZM113.5,95.63c.77,0,1.4.63,1.4,1.4s-.63,1.4-1.4,1.4-1.4-.63-1.4-1.4h0c0-.77.63-1.4,1.4-1.4h0ZM143.24,95.63c.77,0,1.4.63,1.4,1.4,0,.77-.63,1.4-1.4,1.4s-1.4-.63-1.4-1.4h0c0-.77.63-1.4,1.4-1.4h0ZM157.83,121.16c.77,0,1.4.63,1.4,1.4,0,.77-.63,1.4-1.4,1.4s-1.4-.63-1.4-1.4h0c0-.78.63-1.4,1.4-1.4h0ZM98.91,121.16c.77,0,1.4.63,1.4,1.4s-.63,1.4-1.4,1.4-1.4-.63-1.4-1.4h0c0-.78.63-1.4,1.4-1.4h0Z"/>
      </g>
    </g>
  </g>
</svg>
