<svg width="44" height="44" viewBox="0 0 44 44" fill="none" xmlns="http://www.w3.org/2000/svg">
<path fill-rule="evenodd" clip-rule="evenodd" d="M41.869 26.5976C41.9695 26.1767 41.6439 25.7812 41.2111 25.7812H35.3546C35.0587 25.7812 34.7976 25.9713 34.6938 26.2484C32.7642 31.3974 27.7976 35.0625 21.9749 35.0625C16.1522 35.0625 11.1856 31.3974 9.25607 26.2484C9.15222 25.9713 8.89112 25.7812 8.5952 25.7812H2.73869C2.30598 25.7812 1.98031 26.1767 2.08085 26.5976C4.22954 35.5931 12.3212 42.2812 21.9749 42.2812C31.6287 42.2812 39.7203 35.5931 41.869 26.5976ZM41.6859 16.349C41.8041 16.7753 41.4765 17.1875 41.0341 17.1875H35.3546C35.0587 17.1875 34.7976 16.9974 34.6938 16.7203C32.7642 11.5713 27.7976 7.90625 21.9749 7.90625C16.1522 7.90625 11.1856 11.5713 9.25606 16.7203C9.15222 16.9974 8.89112 17.1875 8.5952 17.1875H2.91577C2.47332 17.1875 2.14571 16.7753 2.26397 16.349C4.65918 7.71364 12.5768 1.375 21.9749 1.375C31.373 1.375 39.2906 7.71364 41.6859 16.349Z" fill="#B3E700"/>
<rect x="18.0598" y="17.1875" width="8.59375" height="8.59375" rx="0.6875" fill="#B3E700"/>
</svg>
