<?xml version="1.0" encoding="utf-8"?>
<svg viewBox="0 0 51.465 51" xmlns="http://www.w3.org/2000/svg">
  <defs>
    <radialGradient id="prefix__54398" cx="0" cy="0" r="1" gradientUnits="userSpaceOnUse" gradientTransform="matrix(25.733 0 0 25.4965 25.731 25.502)">
      <stop stop-color="#FDC300"/>
      <stop offset="0.09" stop-color="#FDC109"/>
      <stop offset="0.25" stop-color="#FDBC21"/>
      <stop offset="0.44" stop-color="#FEB348"/>
      <stop offset="0.66" stop-color="#FEA77E"/>
      <stop offset="0.91" stop-color="#FF98C3"/>
      <stop offset="1" stop-color="#FF92DE"/>
    </radialGradient>
  </defs>
  <path d="M8.345 22.632c-.264.664-.49 1.338-.68 2.028a20.831 20.831 0 0 0 .109 11.494c.19.636.416 1.278.675 1.902a20.861 20.861 0 0 0 8.786 10.076 20.503 20.503 0 0 0 2.899 1.406c7.714 3.023 16.5 1.275 22.438-4.465a20.62 20.62 0 0 0 4.379-6.152 22.672 22.672 0 0 1-11.723 6.494c-.19.093-.386.179-.581.264-6.09 2.618-13.16 1.482-18.103-2.91-.276-.244-.545-.5-.807-.764l-.117-.124a16.671 16.671 0 0 1-4.503-8.916c-.05-.302-.091-.604-.127-.908a17.453 17.453 0 0 1-.101-1.821c-.013-3.31.962-6.55 2.805-9.311.462-.697.98-1.361 1.543-1.98a16.999 16.999 0 0 1 12.418-5.576h.404a17.01 17.01 0 0 1 10.246 3.529 15.56 15.56 0 0 0-.346-1.107c-.104-.29-.213-.568-.332-.848a14.955 14.955 0 0 0-2.798-4.34l-.068-.051c-.988-.34-2-.604-3.031-.79a21.41 21.41 0 0 0-8.052.073 20.823 20.823 0 0 0-5.275 1.814 21.047 21.047 0 0 0-3.262 2.032l-.092.068c-.647.5-1.264 1.036-1.85 1.604a20.732 20.732 0 0 0-3.377 4.261 20.112 20.112 0 0 0-1.383 2.79l-.01.228h-.087.003ZM21.02 6.842c-1.264 0-2.529.113-3.773.34a5.986 5.986 0 0 0-.48.093c-.58.118-1.167.264-1.746.437a20.328 20.328 0 0 0-1.965.682 20.635 20.635 0 0 0-10.161 8.72 19.255 19.255 0 0 0-.83 1.552c-.206.425-.399.855-.572 1.288-4.084 10.164.475 21.724 10.434 26.45l.292.138a22.367 22.367 0 0 1-6.565-11.64 6.585 6.585 0 0 1-.277-.581c-.154-.35-.292-.707-.421-1.072a16.656 16.656 0 0 1 .703-12.875 16.816 16.816 0 0 1 3.564-4.89 15.903 15.903 0 0 1 1.848-1.521 17.05 17.05 0 0 1 3.199-1.784 22.158 22.158 0 0 1 8.974-4.034c1.208-.25 2.436-.4 3.67-.45l-.277-.08a20.938 20.938 0 0 0-5.612-.773h-.005Zm3.566 36.49.277.076c3.054.835 6.258.978 9.377.422l.087-.015a19.772 19.772 0 0 0 2.158-.513c.601-.176 1.198-.38 1.8-.616l.205.274-.125-.307a20.805 20.805 0 0 0 6.804-4.414 20.87 20.87 0 0 0 3.381-4.268c.54-.908 1.01-1.856 1.404-2.835A20.673 20.673 0 0 0 45.48 8.832a20.769 20.769 0 0 0-6.184-4.327 22.43 22.43 0 0 1 5.74 8.819c.33.93.601 1.881.81 2.847.073.138.172.352.266.563a16.694 16.694 0 0 1 1.142 3.894c.15.913.226 1.833.226 2.759a16.69 16.69 0 0 1-5.097 12.035l-.12.113a16.84 16.84 0 0 1-5.064 3.33 22.442 22.442 0 0 1-6.062 3.205c-.944.33-1.911.599-2.891.805a23.208 23.208 0 0 1-3.655.458h-.006Zm-7.915-2.882c.993.347 2.01.616 3.047.805a20.89 20.89 0 0 0 8.097-.076 21.537 21.537 0 0 0 5.227-1.805 20.731 20.731 0 0 0 9.466-9.583c.196-.413.376-.815.544-1.228l.023-.065a20.402 20.402 0 0 0 1.154-11.399v-.01a6.832 6.832 0 0 0-.086-.445 19.169 19.169 0 0 0-.444-1.748 20.081 20.081 0 0 0-.673-1.904 20.607 20.607 0 0 0-8.75-10.086 21.547 21.547 0 0 0-2.848-1.394C21.154-2.59 9.43 1.92 4.648 11.817a5.583 5.583 0 0 0-.126.274 22.73 22.73 0 0 1 8.91-5.7 23.865 23.865 0 0 1 2.853-.796c.155-.083.386-.19.62-.285.332-.138.675-.274 1.023-.395a17.67 17.67 0 0 1 2.914-.742A17.174 17.174 0 0 1 32.956 6.75c.698.453 1.363.956 1.985 1.51.31.273.61.557.901.854a16.757 16.757 0 0 1 3.359 5.023c.15.352.292.704.416 1.07.333.93.581 1.888.744 2.864a16.542 16.542 0 0 1-1.447 10.01 16.999 16.999 0 0 1-2.673 3.98 17.148 17.148 0 0 1-12.454 5.6c-.84.013-1.68-.04-2.51-.155a17.162 17.162 0 0 1-5.047-1.51 17.236 17.236 0 0 1-3.062-1.863 14.978 14.978 0 0 0 3.503 6.31h.003l-.003.008Zm-3.975-9.055a15.134 15.134 0 0 0 4.293 3.034c.355.168.718.324 1.084.465a16.693 16.693 0 0 1-4.511-9.865 15.023 15.023 0 0 0-.864 6.369v-.005l-.002.002Zm20.697-15.28a16.873 16.873 0 0 1 4.52 9.838c.744-2.018 1.042-4.17.874-6.311v-.008a15.292 15.292 0 0 0-5.392-3.521l-.002.003Z" fill="url(#prefix__54398)"/>
</svg>