<svg version="1.1" id="Layer_1" xmlns="http://www.w3.org/2000/svg" xmlns:xlink="http://www.w3.org/1999/xlink" x="0px" y="0px"
	 width="100%" viewBox="0 0 1024 1024" enable-background="new 0 0 1024 1024" xml:space="preserve">
<path fill="#5800FF" opacity="1.000000" stroke="none" 
	d="
M679.000000,1025.000000 
	C452.666656,1025.000000 226.833328,1025.000000 1.000000,1025.000000 
	C1.000000,683.666687 1.000000,342.333344 1.000000,1.000000 
	C342.333344,1.000000 683.666687,1.000000 1025.000000,1.000000 
	C1025.000000,342.333344 1025.000000,683.666687 1025.000000,1025.000000 
	C909.833313,1025.000000 794.666687,1025.000000 679.000000,1025.000000 
M261.488770,868.176147 
	C273.309326,862.375488 278.977478,852.745178 278.987274,839.725647 
	C279.020782,795.229919 279.000885,750.734192 279.001343,706.238464 
	C279.001343,704.499084 279.001343,702.759705 279.001343,699.694641 
	C280.219513,701.539734 280.674194,702.161011 281.060089,702.822510 
	C300.577728,736.278748 324.318634,766.405212 352.494568,792.983704 
	C380.965790,819.840759 412.621735,841.914246 449.209747,856.410828 
	C482.791534,869.716309 517.272339,874.336853 552.988098,867.049438 
	C590.078796,859.481445 623.001221,842.813416 652.961182,820.262573 
	C726.714417,764.748535 774.142578,691.459656 797.959717,602.651733 
	C806.512878,570.758972 811.279724,538.113892 814.725952,505.321503 
	C817.492554,478.995758 820.185730,452.663757 818.207642,426.055908 
	C814.670898,378.482178 800.554016,334.386017 775.274719,294.035736 
	C709.078186,188.374115 583.596252,134.036667 461.226929,158.620224 
	C371.184235,176.709488 302.208405,225.466766 256.294769,305.172913 
	C226.289078,357.262787 214.560760,413.866760 220.667816,473.842163 
	C223.062149,497.356232 226.157776,520.799072 228.973694,544.269653 
	C229.283585,546.852661 229.251556,548.729614 226.493057,550.463196 
	C201.862091,565.942688 182.804626,586.824158 168.396759,611.944763 
	C137.879257,665.152832 128.829025,723.380188 129.244507,783.613525 
	C129.344009,798.039429 142.175949,810.081604 156.276505,811.013245 
	C171.725052,812.034058 185.018723,802.647461 188.016708,787.966187 
	C189.101852,782.652222 188.901443,777.051453 189.052200,771.575073 
	C189.954666,738.792542 193.748108,706.469299 205.120850,675.479126 
	C208.731842,665.639343 213.377075,656.179138 217.549011,646.545227 
	C218.032745,646.699951 218.516464,646.854675 219.000198,647.009399 
	C219.000198,648.784546 219.000198,650.559631 219.000198,652.334778 
	C219.000275,714.495483 218.974655,776.656189 219.013474,838.816895 
	C219.028290,862.561096 238.490845,876.357117 261.488770,868.176147 
z"/>
<path fill="#FFFFFF" opacity="1.000000" stroke="none" 
	d="
M261.153198,868.369019 
	C238.490845,876.357117 219.028290,862.561096 219.013474,838.816895 
	C218.974655,776.656189 219.000275,714.495483 219.000198,652.334778 
	C219.000198,650.559631 219.000198,648.784546 219.000198,647.009399 
	C218.516464,646.854675 218.032745,646.699951 217.549011,646.545227 
	C213.377075,656.179138 208.731842,665.639343 205.120850,675.479126 
	C193.748108,706.469299 189.954666,738.792542 189.052200,771.575073 
	C188.901443,777.051453 189.101852,782.652222 188.016708,787.966187 
	C185.018723,802.647461 171.725052,812.034058 156.276505,811.013245 
	C142.175949,810.081604 129.344009,798.039429 129.244507,783.613525 
	C128.829025,723.380188 137.879257,665.152832 168.396759,611.944763 
	C182.804626,586.824158 201.862091,565.942688 226.493057,550.463196 
	C229.251556,548.729614 229.283585,546.852661 228.973694,544.269653 
	C226.157776,520.799072 223.062149,497.356232 220.667816,473.842163 
	C214.560760,413.866760 226.289078,357.262787 256.294769,305.172913 
	C302.208405,225.466766 371.184235,176.709488 461.226929,158.620224 
	C583.596252,134.036667 709.078186,188.374115 775.274719,294.035736 
	C800.554016,334.386017 814.670898,378.482178 818.207642,426.055908 
	C820.185730,452.663757 817.492554,478.995758 814.725952,505.321503 
	C811.279724,538.113892 806.512878,570.758972 797.959717,602.651733 
	C774.142578,691.459656 726.714417,764.748535 652.961182,820.262573 
	C623.001221,842.813416 590.078796,859.481445 552.988098,867.049438 
	C517.272339,874.336853 482.791534,869.716309 449.209747,856.410828 
	C412.621735,841.914246 380.965790,819.840759 352.494568,792.983704 
	C324.318634,766.405212 300.577728,736.278748 281.060089,702.822510 
	C280.674194,702.161011 280.219513,701.539734 279.001343,699.694641 
	C279.001343,702.759705 279.001343,704.499084 279.001343,706.238464 
	C279.000885,750.734192 279.020782,795.229919 278.987274,839.725647 
	C278.977478,852.745178 273.309326,862.375488 261.153198,868.369019 
M379.137024,420.618225 
	C369.420044,426.044830 359.223511,430.771942 350.082550,437.038757 
	C328.857910,451.589691 314.116089,470.826874 309.425140,496.892090 
	C303.130096,531.870544 319.114441,557.515320 353.372772,567.072327 
	C375.078735,573.127502 396.915588,571.852295 418.786896,568.524109 
	C436.091187,565.890869 451.848633,558.631042 467.689209,551.677612 
	C492.293610,540.877258 518.064636,538.570923 543.984924,544.018005 
	C558.295410,547.025452 572.092468,553.013062 585.718262,558.633545 
	C617.146484,571.597595 649.629639,574.255859 682.763000,568.815125 
	C709.568909,564.413391 726.111572,546.935242 728.784302,521.407959 
	C731.769714,492.894135 722.647949,468.581146 701.975708,448.716309 
	C684.952515,432.358032 664.486694,421.573792 642.396851,414.171478 
	C588.049255,395.959442 532.515259,387.866302 475.174774,395.765503 
	C442.402344,400.280212 410.294037,407.027405 379.137024,420.618225 
z"/>
<path fill="#5901FF" opacity="1.000000" stroke="none" 
	d="
M379.468109,420.431824 
	C410.294037,407.027405 442.402344,400.280212 475.174774,395.765503 
	C532.515259,387.866302 588.049255,395.959442 642.396851,414.171478 
	C664.486694,421.573792 684.952515,432.358032 701.975708,448.716309 
	C722.647949,468.581146 731.769714,492.894135 728.784302,521.407959 
	C726.111572,546.935242 709.568909,564.413391 682.763000,568.815125 
	C649.629639,574.255859 617.146484,571.597595 585.718262,558.633545 
	C572.092468,553.013062 558.295410,547.025452 543.984924,544.018005 
	C518.064636,538.570923 492.293610,540.877258 467.689209,551.677612 
	C451.848633,558.631042 436.091187,565.890869 418.786896,568.524109 
	C396.915588,571.852295 375.078735,573.127502 353.372772,567.072327 
	C319.114441,557.515320 303.130096,531.870544 309.425140,496.892090 
	C314.116089,470.826874 328.857910,451.589691 350.082550,437.038757 
	C359.223511,430.771942 369.420044,426.044830 379.468109,420.431824 
M636.408997,469.219238 
	C635.209106,467.432251 634.138367,465.540558 632.788208,463.875427 
	C624.591675,453.767090 611.240051,450.116852 599.086670,454.580444 
	C587.282959,458.915527 579.166382,470.515228 579.217957,482.975006 
	C579.270386,495.636017 587.618835,507.375977 599.780090,511.346069 
	C611.805237,515.271790 622.595947,512.681702 631.262024,503.544952 
	C640.557068,493.744965 642.055054,482.264832 636.408997,469.219238 
M445.720154,507.316589 
	C458.181183,497.108643 461.754059,482.902771 455.211090,469.580505 
	C449.079071,457.094971 434.745605,450.108643 421.443939,453.496155 
	C408.843964,456.705048 400.804321,464.866028 398.475952,477.645569 
	C396.173157,490.285004 400.843719,500.726440 411.445435,507.834808 
	C422.457977,515.218689 433.928223,514.801453 445.720154,507.316589 
z"/>
<path fill="#FEFDFF" opacity="1.000000" stroke="none" 
	d="
M636.600525,469.545776 
	C642.055054,482.264832 640.557068,493.744965 631.262024,503.544952 
	C622.595947,512.681702 611.805237,515.271790 599.780090,511.346069 
	C587.618835,507.375977 579.270386,495.636017 579.217957,482.975006 
	C579.166382,470.515228 587.282959,458.915527 599.086670,454.580444 
	C611.240051,450.116852 624.591675,453.767090 632.788208,463.875427 
	C634.138367,465.540558 635.209106,467.432251 636.600525,469.545776 
z"/>
<path fill="#FEFDFF" opacity="1.000000" stroke="none" 
	d="
M445.436401,507.544617 
	C433.928223,514.801453 422.457977,515.218689 411.445435,507.834808 
	C400.843719,500.726440 396.173157,490.285004 398.475952,477.645569 
	C400.804321,464.866028 408.843964,456.705048 421.443939,453.496155 
	C434.745605,450.108643 449.079071,457.094971 455.211090,469.580505 
	C461.754059,482.902771 458.181183,497.108643 445.436401,507.544617 
z"/>
</svg>
